<svg xmlns="http://www.w3.org/2000/svg" xmlns:xlink="http://www.w3.org/1999/xlink" width="500" zoomAndPan="magnify" viewBox="0 0 375 374.999991" height="500" preserveAspectRatio="xMidYMid meet" version="1.2"><defs><clipPath id="e14de5570c"><path d="M 77.230469 51 L 128 51 L 128 322 L 77.230469 322 Z M 77.230469 51 "/></clipPath><clipPath id="e9e32df550"><path d="M 148 59 L 297.59375 59 L 297.59375 95.960938 L 148 95.960938 Z M 148 59 "/></clipPath><clipPath id="97da8ab11d"><path d="M 147 132 L 199.46875 132 L 199.46875 316 L 147 316 Z M 147 132 "/></clipPath><clipPath id="08b774ced1"><path d="M 153 128 L 293 128 L 293 168 L 153 168 Z M 153 128 "/></clipPath><clipPath id="d7f5cc2a3a"><path d="M 151.003906 134.507812 L 289.648438 119.078125 L 293.960938 157.835938 L 155.316406 173.269531 Z M 151.003906 134.507812 "/></clipPath><clipPath id="0943cccbcf"><path d="M 155.289062 173.011719 L 293.933594 157.582031 L 289.621094 118.820312 L 150.976562 134.253906 Z M 155.289062 173.011719 "/></clipPath></defs><g id="31ac9d91e9"><g clip-rule="nonzero" clip-path="url(#e14de5570c)"><path style=" stroke:none;fill-rule:nonzero;fill:#333333;fill-opacity:1;" d="M 84.167969 315.480469 C 79.933594 311.835938 79.1875 306.035156 78.882812 300.125 C 77.121094 266.25 77.199219 232.308594 77.28125 198.386719 C 77.296875 190.375 77.316406 182.367188 77.335938 174.355469 C 77.417969 138.742188 77.503906 103.117188 78.582031 67.515625 C 78.957031 55.277344 85.855469 52.234375 96.980469 51.734375 C 100.238281 51.589844 103.496094 51.441406 106.757812 51.296875 C 111.277344 51.09375 116.546875 51.449219 120.113281 54.570312 C 128.949219 62.296875 126.308594 88.851562 126.480469 101.628906 C 127.304688 163.945312 126.679688 224.558594 127.503906 286.875 C 127.59375 293.660156 127.660156 300.605469 125.445312 307.023438 C 119.738281 323.582031 101.292969 323.738281 87.382812 317.492188 C 86.132812 316.933594 85.074219 316.253906 84.167969 315.480469 Z M 84.167969 315.480469 "/></g><g clip-rule="nonzero" clip-path="url(#e9e32df550)"><path style=" stroke:none;fill-rule:nonzero;fill:#333333;fill-opacity:1;" d="M 296.996094 74.714844 C 296.855469 72.59375 296.578125 70.605469 296.3125 69.003906 C 296.074219 67.554688 295.8125 66.046875 294.945312 64.863281 C 294.191406 63.84375 293.070312 63.175781 291.984375 62.535156 C 288.59375 60.539062 283.261719 60.664062 279.402344 60.523438 C 242.460938 59.179688 205.496094 59.304688 168.515625 60.902344 C 162.976562 61.144531 156.894531 61.644531 152.949219 65.542969 C 147.832031 70.59375 146.835938 82.957031 150.878906 88.890625 C 154.132812 93.679688 160.800781 94.398438 166.589844 94.605469 C 203.824219 95.941406 241.015625 95.160156 278.160156 92.265625 C 283.148438 91.875 288.355469 92.140625 292.691406 89.210938 C 296.78125 86.4375 297.347656 80.148438 296.996094 74.714844 Z M 296.996094 74.714844 "/></g><g clip-rule="nonzero" clip-path="url(#97da8ab11d)"><path style=" stroke:none;fill-rule:nonzero;fill:#333333;fill-opacity:1;" d="M 192.054688 134.277344 C 190.808594 133.746094 189.515625 133.371094 188.179688 133.148438 C 181.796875 131.945312 175.269531 132.996094 168.835938 133.652344 C 165.449219 134.007812 161.957031 134.507812 159.179688 135.941406 C 154.910156 138.117188 153.097656 141.992188 152.003906 145.664062 C 149.828125 153.011719 149.5 160.589844 149.21875 168.113281 C 148.171875 195.816406 147.5 223.527344 147.199219 251.246094 C 147.011719 268.300781 146.96875 285.40625 149.871094 302.332031 C 150.496094 305.964844 151.472656 309.894531 155.261719 312.351562 C 158.222656 314.273438 162.359375 314.917969 166.320312 315.289062 C 173.011719 315.917969 179.710938 315.988281 186.414062 315.5 C 188.660156 315.339844 191.003906 315.078125 192.808594 314.105469 C 195.527344 312.640625 196.269531 309.992188 196.734375 307.578125 C 199.480469 293.394531 199.316406 279.015625 199.144531 264.695312 L 198.515625 212.167969 L 197.886719 159.375 C 197.886719 154.335938 197.390625 149.144531 196.949219 144.105469 C 196.726562 141.511719 196.046875 137.226562 193.597656 135.214844 C 193.121094 134.835938 192.609375 134.523438 192.054688 134.277344 Z M 192.054688 134.277344 "/></g><g clip-rule="nonzero" clip-path="url(#08b774ced1)"><g clip-rule="nonzero" clip-path="url(#d7f5cc2a3a)"><g clip-rule="nonzero" clip-path="url(#0943cccbcf)"><path style=" stroke:none;fill-rule:nonzero;fill:#333333;fill-opacity:1;" d="M 271.664062 160.050781 C 268.28125 160.410156 264.011719 160.847656 258.578125 161.398438 C 231.546875 164.144531 218.777344 164.953125 190.042969 165.738281 C 180.28125 166.003906 171.445312 166.445312 168.769531 166.800781 L 164.195312 167.40625 L 161.429688 166.136719 C 155.898438 163.597656 155.554688 163.050781 154.054688 154.53125 C 152.367188 144.925781 152.660156 141.828125 155.613281 137.957031 C 157.386719 135.632812 159.199219 134.378906 161.933594 133.582031 C 163.066406 133.246094 165.261719 132.90625 166.804688 132.824219 C 168.351562 132.738281 173.671875 132.414062 178.632812 132.101562 C 183.589844 131.789062 191.625 131.347656 196.484375 131.125 C 201.34375 130.898438 209.195312 130.476562 213.9375 130.1875 C 229.851562 129.214844 242.308594 128.777344 261.78125 128.511719 C 265.421875 128.464844 272.242188 128.78125 279.882812 129.355469 C 281.027344 129.441406 282.753906 129.90625 283.71875 130.390625 C 287.042969 132.054688 289.816406 137.679688 291.738281 146.652344 C 292.691406 151.097656 292.703125 151.355469 292.0625 153.160156 C 291.28125 155.355469 289.730469 156.539062 285.753906 157.964844 C 284.589844 158.382812 283.226562 158.691406 279.441406 159.167969 C 277.546875 159.40625 275.050781 159.691406 271.664062 160.050781 Z M 271.664062 160.050781 "/></g></g></g></g></svg>